<svg xmlns="http://www.w3.org/2000/svg" version="1.1" xmlns:xlink="http://www.w3.org/1999/xlink" xmlns:svgjs="http://svgjs.dev/svgjs" width="1440" height="560" preserveAspectRatio="none" viewBox="0 0 1440 560"><g mask="url(&quot;#SvgjsMask1038&quot;)" fill="none"><path d="M-53.98 394.22L-53.98 394.22" stroke="#132e65" stroke-width="1.5"></path><path d="M-53.98 394.22L-80.33 529.4" stroke="#132e65" stroke-width="1.5"></path><path d="M-53.98 394.22L88.88 387.38" stroke="#132e65" stroke-width="1.5"></path><path d="M-80.33 529.4L-80.33 529.4" stroke="#132e65" stroke-width="1.5"></path><path d="M-80.33 529.4L-75.56 677.98" stroke="#132e65" stroke-width="1.5"></path><path d="M-80.33 529.4L85.61 542.28" stroke="#132e65" stroke-width="1.5"></path><path d="M-80.33 529.4L88.88 387.38" stroke="#132e65" stroke-width="1.5"></path><path d="M-80.33 529.4L111.66 680.9" stroke="#132e65" stroke-width="1.5"></path><path d="M-80.33 529.4L224.99 529.3" stroke="#132e65" stroke-width="1.5"></path><path d="M-75.56 677.98L-75.56 677.98" stroke="#132e65" stroke-width="1.5"></path><path d="M-75.56 677.98L111.66 680.9" stroke="#132e65" stroke-width="1.5"></path><path d="M-75.56 677.98L85.61 542.28" stroke="#132e65" stroke-width="1.5"></path><path d="M-75.56 677.98L-53.98 394.22" stroke="#132e65" stroke-width="1.5"></path><path d="M-75.56 677.98L88.88 387.38" stroke="#132e65" stroke-width="1.5"></path><path d="M88.88 387.38L88.88 387.38" stroke="#132e65" stroke-width="1.5"></path><path d="M88.88 387.38L85.61 542.28" stroke="#132e65" stroke-width="1.5"></path><path d="M88.88 387.38L259.83 396.5" stroke="#132e65" stroke-width="1.5"></path><path d="M88.88 387.38L224.99 529.3" stroke="#132e65" stroke-width="1.5"></path><path d="M88.88 387.38L338.68 382.45" stroke="#132e65" stroke-width="1.5"></path><path d="M85.61 542.28L85.61 542.28" stroke="#132e65" stroke-width="1.5"></path><path d="M85.61 542.28L224.99 529.3" stroke="#132e65" stroke-width="1.5"></path><path d="M85.61 542.28L111.66 680.9" stroke="#132e65" stroke-width="1.5"></path><path d="M85.61 542.28L-53.98 394.22" stroke="#132e65" stroke-width="1.5"></path><path d="M111.66 680.9L111.66 680.9" stroke="#132e65" stroke-width="1.5"></path><path d="M111.66 680.9L258.64 710.85" stroke="#132e65" stroke-width="1.5"></path><path d="M111.66 680.9L224.99 529.3" stroke="#132e65" stroke-width="1.5"></path><path d="M259.83 396.5L259.83 396.5" stroke="#132e65" stroke-width="1.5"></path><path d="M259.83 396.5L338.68 382.45" stroke="#132e65" stroke-width="1.5"></path><path d="M259.83 396.5L224.99 529.3" stroke="#132e65" stroke-width="1.5"></path><path d="M259.83 396.5L399.9 549.4" stroke="#132e65" stroke-width="1.5"></path><path d="M259.83 396.5L85.61 542.28" stroke="#132e65" stroke-width="1.5"></path><path d="M224.99 529.3L224.99 529.3" stroke="#132e65" stroke-width="1.5"></path><path d="M224.99 529.3L399.9 549.4" stroke="#132e65" stroke-width="1.5"></path><path d="M224.99 529.3L258.64 710.85" stroke="#132e65" stroke-width="1.5"></path><path d="M224.99 529.3L338.68 382.45" stroke="#132e65" stroke-width="1.5"></path><path d="M258.64 710.85L258.64 710.85" stroke="#132e65" stroke-width="1.5"></path><path d="M258.64 710.85L389.99 688.19" stroke="#132e65" stroke-width="1.5"></path><path d="M258.64 710.85L399.9 549.4" stroke="#132e65" stroke-width="1.5"></path><path d="M338.68 382.45L338.68 382.45" stroke="#132e65" stroke-width="1.5"></path><path d="M338.68 382.45L399.9 549.4" stroke="#132e65" stroke-width="1.5"></path><path d="M338.68 382.45L535.88 406.6" stroke="#132e65" stroke-width="1.5"></path><path d="M338.68 382.45L555.86 501.11" stroke="#132e65" stroke-width="1.5"></path><path d="M399.9 549.4L399.9 549.4" stroke="#132e65" stroke-width="1.5"></path><path d="M399.9 549.4L389.99 688.19" stroke="#132e65" stroke-width="1.5"></path><path d="M399.9 549.4L555.86 501.11" stroke="#132e65" stroke-width="1.5"></path><path d="M399.9 549.4L495.39 691.44" stroke="#132e65" stroke-width="1.5"></path><path d="M389.99 688.19L389.99 688.19" stroke="#132e65" stroke-width="1.5"></path><path d="M389.99 688.19L495.39 691.44" stroke="#132e65" stroke-width="1.5"></path><path d="M389.99 688.19L224.99 529.3" stroke="#132e65" stroke-width="1.5"></path><path d="M389.99 688.19L555.86 501.11" stroke="#132e65" stroke-width="1.5"></path><path d="M535.88 406.6L535.88 406.6" stroke="#132e65" stroke-width="1.5"></path><path d="M535.88 406.6L555.86 501.11" stroke="#132e65" stroke-width="1.5"></path><path d="M535.88 406.6L638.43 351.72" stroke="#132e65" stroke-width="1.5"></path><path d="M535.88 406.6L647.01 501.28" stroke="#132e65" stroke-width="1.5"></path><path d="M535.88 406.6L399.9 549.4" stroke="#132e65" stroke-width="1.5"></path><path d="M535.88 406.6L702.99 222.47" stroke="#132e65" stroke-width="1.5"></path><path d="M555.86 501.11L555.86 501.11" stroke="#132e65" stroke-width="1.5"></path><path d="M555.86 501.11L647.01 501.28" stroke="#132e65" stroke-width="1.5"></path><path d="M555.86 501.11L638.43 351.72" stroke="#132e65" stroke-width="1.5"></path><path d="M495.39 691.44L495.39 691.44" stroke="#132e65" stroke-width="1.5"></path><path d="M495.39 691.44L680.81 637.59" stroke="#132e65" stroke-width="1.5"></path><path d="M702.99 222.47L702.99 222.47" stroke="#132e65" stroke-width="1.5"></path><path d="M702.99 222.47L638.43 351.72" stroke="#132e65" stroke-width="1.5"></path><path d="M702.99 222.47L851.59 215.73" stroke="#132e65" stroke-width="1.5"></path><path d="M702.99 222.47L827.9 404.89" stroke="#132e65" stroke-width="1.5"></path><path d="M702.99 222.47L953.12 245.21" stroke="#132e65" stroke-width="1.5"></path><path d="M702.99 222.47L647.01 501.28" stroke="#132e65" stroke-width="1.5"></path><path d="M638.43 351.72L638.43 351.72" stroke="#132e65" stroke-width="1.5"></path><path d="M638.43 351.72L647.01 501.28" stroke="#132e65" stroke-width="1.5"></path><path d="M638.43 351.72L827.9 404.89" stroke="#132e65" stroke-width="1.5"></path><path d="M647.01 501.28L647.01 501.28" stroke="#132e65" stroke-width="1.5"></path><path d="M647.01 501.28L680.81 637.59" stroke="#132e65" stroke-width="1.5"></path><path d="M680.81 637.59L680.81 637.59" stroke="#132e65" stroke-width="1.5"></path><path d="M680.81 637.59L821.25 647.69" stroke="#132e65" stroke-width="1.5"></path><path d="M680.81 637.59L555.86 501.11" stroke="#132e65" stroke-width="1.5"></path><path d="M851.59 215.73L851.59 215.73" stroke="#132e65" stroke-width="1.5"></path><path d="M851.59 215.73L953.12 245.21" stroke="#132e65" stroke-width="1.5"></path><path d="M827.9 404.89L827.9 404.89" stroke="#132e65" stroke-width="1.5"></path><path d="M827.9 404.89L1007.71 349.15" stroke="#132e65" stroke-width="1.5"></path><path d="M827.9 404.89L851.59 215.73" stroke="#132e65" stroke-width="1.5"></path><path d="M821.25 647.69L821.25 647.69" stroke="#132e65" stroke-width="1.5"></path><path d="M821.25 647.69L974.51 555.5" stroke="#132e65" stroke-width="1.5"></path><path d="M821.25 647.69L1003.95 673.51" stroke="#132e65" stroke-width="1.5"></path><path d="M821.25 647.69L647.01 501.28" stroke="#132e65" stroke-width="1.5"></path><path d="M949.5 -74.56L949.5 -74.56" stroke="#132e65" stroke-width="1.5"></path><path d="M949.5 -74.56L1005.79 57.97" stroke="#132e65" stroke-width="1.5"></path><path d="M949.5 -74.56L1132.04 -62.01" stroke="#132e65" stroke-width="1.5"></path><path d="M1005.79 57.97L1005.79 57.97" stroke="#132e65" stroke-width="1.5"></path><path d="M1005.79 57.97L1161.26 70.07" stroke="#132e65" stroke-width="1.5"></path><path d="M953.12 245.21L953.12 245.21" stroke="#132e65" stroke-width="1.5"></path><path d="M953.12 245.21L1007.71 349.15" stroke="#132e65" stroke-width="1.5"></path><path d="M953.12 245.21L1126.42 219.58" stroke="#132e65" stroke-width="1.5"></path><path d="M953.12 245.21L1105.21 338.18" stroke="#132e65" stroke-width="1.5"></path><path d="M953.12 245.21L1005.79 57.97" stroke="#132e65" stroke-width="1.5"></path><path d="M1007.71 349.15L1007.71 349.15" stroke="#132e65" stroke-width="1.5"></path><path d="M1007.71 349.15L1105.21 338.18" stroke="#132e65" stroke-width="1.5"></path><path d="M1007.71 349.15L1126.42 219.58" stroke="#132e65" stroke-width="1.5"></path><path d="M974.51 555.5L974.51 555.5" stroke="#132e65" stroke-width="1.5"></path><path d="M974.51 555.5L1003.95 673.51" stroke="#132e65" stroke-width="1.5"></path><path d="M1003.95 673.51L1003.95 673.51" stroke="#132e65" stroke-width="1.5"></path><path d="M1003.95 673.51L1093.23 701.48" stroke="#132e65" stroke-width="1.5"></path><path d="M1003.95 673.51L1141.91 558.4" stroke="#132e65" stroke-width="1.5"></path><path d="M1132.04 -62.01L1132.04 -62.01" stroke="#132e65" stroke-width="1.5"></path><path d="M1132.04 -62.01L1256.78 -56.65" stroke="#132e65" stroke-width="1.5"></path><path d="M1132.04 -62.01L1161.26 70.07" stroke="#132e65" stroke-width="1.5"></path><path d="M1132.04 -62.01L1005.79 57.97" stroke="#132e65" stroke-width="1.5"></path><path d="M1161.26 70.07L1161.26 70.07" stroke="#132e65" stroke-width="1.5"></path><path d="M1161.26 70.07L1239.86 91.17" stroke="#132e65" stroke-width="1.5"></path><path d="M1161.26 70.07L1126.42 219.58" stroke="#132e65" stroke-width="1.5"></path><path d="M1161.26 70.07L1256.78 -56.65" stroke="#132e65" stroke-width="1.5"></path><path d="M1126.42 219.58L1126.42 219.58" stroke="#132e65" stroke-width="1.5"></path><path d="M1126.42 219.58L1105.21 338.18" stroke="#132e65" stroke-width="1.5"></path><path d="M1126.42 219.58L1270.95 261.65" stroke="#132e65" stroke-width="1.5"></path><path d="M1105.21 338.18L1105.21 338.18" stroke="#132e65" stroke-width="1.5"></path><path d="M1105.21 338.18L1270.95 261.65" stroke="#132e65" stroke-width="1.5"></path><path d="M1105.21 338.18L1308.91 338.42" stroke="#132e65" stroke-width="1.5"></path><path d="M1105.21 338.18L1141.91 558.4" stroke="#132e65" stroke-width="1.5"></path><path d="M1141.91 558.4L1141.91 558.4" stroke="#132e65" stroke-width="1.5"></path><path d="M1141.91 558.4L1093.23 701.48" stroke="#132e65" stroke-width="1.5"></path><path d="M1141.91 558.4L1294.36 495.92" stroke="#132e65" stroke-width="1.5"></path><path d="M1093.23 701.48L1093.23 701.48" stroke="#132e65" stroke-width="1.5"></path><path d="M1256.78 -56.65L1256.78 -56.65" stroke="#132e65" stroke-width="1.5"></path><path d="M1256.78 -56.65L1398.37 -54.01" stroke="#132e65" stroke-width="1.5"></path><path d="M1256.78 -56.65L1239.86 91.17" stroke="#132e65" stroke-width="1.5"></path><path d="M1256.78 -56.65L1430.96 43.09" stroke="#132e65" stroke-width="1.5"></path><path d="M1256.78 -56.65L1005.79 57.97" stroke="#132e65" stroke-width="1.5"></path><path d="M1239.86 91.17L1239.86 91.17" stroke="#132e65" stroke-width="1.5"></path><path d="M1239.86 91.17L1126.42 219.58" stroke="#132e65" stroke-width="1.5"></path><path d="M1270.95 261.65L1270.95 261.65" stroke="#132e65" stroke-width="1.5"></path><path d="M1270.95 261.65L1308.91 338.42" stroke="#132e65" stroke-width="1.5"></path><path d="M1270.95 261.65L1426.17 248.13" stroke="#132e65" stroke-width="1.5"></path><path d="M1308.91 338.42L1308.91 338.42" stroke="#132e65" stroke-width="1.5"></path><path d="M1308.91 338.42L1406.33 371.9" stroke="#132e65" stroke-width="1.5"></path><path d="M1308.91 338.42L1426.17 248.13" stroke="#132e65" stroke-width="1.5"></path><path d="M1308.91 338.42L1294.36 495.92" stroke="#132e65" stroke-width="1.5"></path><path d="M1308.91 338.42L1439.44 508.79" stroke="#132e65" stroke-width="1.5"></path><path d="M1294.36 495.92L1294.36 495.92" stroke="#132e65" stroke-width="1.5"></path><path d="M1294.36 495.92L1439.44 508.79" stroke="#132e65" stroke-width="1.5"></path><path d="M1294.36 495.92L1290.88 644.34" stroke="#132e65" stroke-width="1.5"></path><path d="M1290.88 644.34L1290.88 644.34" stroke="#132e65" stroke-width="1.5"></path><path d="M1290.88 644.34L1393.97 683.91" stroke="#132e65" stroke-width="1.5"></path><path d="M1290.88 644.34L1141.91 558.4" stroke="#132e65" stroke-width="1.5"></path><path d="M1290.88 644.34L1439.44 508.79" stroke="#132e65" stroke-width="1.5"></path><path d="M1290.88 644.34L1093.23 701.48" stroke="#132e65" stroke-width="1.5"></path><path d="M1398.37 -54.01L1398.37 -54.01" stroke="#132e65" stroke-width="1.5"></path><path d="M1398.37 -54.01L1430.96 43.09" stroke="#132e65" stroke-width="1.5"></path><path d="M1430.96 43.09L1430.96 43.09" stroke="#132e65" stroke-width="1.5"></path><path d="M1430.96 43.09L1558.67 102.94" stroke="#132e65" stroke-width="1.5"></path><path d="M1430.96 43.09L1545.42 196.67" stroke="#132e65" stroke-width="1.5"></path><path d="M1426.17 248.13L1426.17 248.13" stroke="#132e65" stroke-width="1.5"></path><path d="M1426.17 248.13L1406.33 371.9" stroke="#132e65" stroke-width="1.5"></path><path d="M1426.17 248.13L1545.42 196.67" stroke="#132e65" stroke-width="1.5"></path><path d="M1406.33 371.9L1406.33 371.9" stroke="#132e65" stroke-width="1.5"></path><path d="M1439.44 508.79L1439.44 508.79" stroke="#132e65" stroke-width="1.5"></path><path d="M1439.44 508.79L1542.82 503.22" stroke="#132e65" stroke-width="1.5"></path><path d="M1439.44 508.79L1406.33 371.9" stroke="#132e65" stroke-width="1.5"></path><path d="M1439.44 508.79L1393.97 683.91" stroke="#132e65" stroke-width="1.5"></path><path d="M1393.97 683.91L1393.97 683.91" stroke="#132e65" stroke-width="1.5"></path><path d="M1393.97 683.91L1569.95 696.9" stroke="#132e65" stroke-width="1.5"></path><path d="M1393.97 683.91L1294.36 495.92" stroke="#132e65" stroke-width="1.5"></path><path d="M1611.08 -76.56L1611.08 -76.56" stroke="#132e65" stroke-width="1.5"></path><path d="M1611.08 -76.56L1558.67 102.94" stroke="#132e65" stroke-width="1.5"></path><path d="M1611.08 -76.56L1398.37 -54.01" stroke="#132e65" stroke-width="1.5"></path><path d="M1611.08 -76.56L1430.96 43.09" stroke="#132e65" stroke-width="1.5"></path><path d="M1558.67 102.94L1558.67 102.94" stroke="#132e65" stroke-width="1.5"></path><path d="M1558.67 102.94L1545.42 196.67" stroke="#132e65" stroke-width="1.5"></path><path d="M1545.42 196.67L1545.42 196.67" stroke="#132e65" stroke-width="1.5"></path><path d="M1545.42 196.67L1596.45 412.4" stroke="#132e65" stroke-width="1.5"></path><path d="M1596.45 412.4L1596.45 412.4" stroke="#132e65" stroke-width="1.5"></path><path d="M1596.45 412.4L1542.82 503.22" stroke="#132e65" stroke-width="1.5"></path><path d="M1596.45 412.4L1439.44 508.79" stroke="#132e65" stroke-width="1.5"></path><path d="M1542.82 503.22L1542.82 503.22" stroke="#132e65" stroke-width="1.5"></path><path d="M1542.82 503.22L1406.33 371.9" stroke="#132e65" stroke-width="1.5"></path><path d="M1542.82 503.22L1569.95 696.9" stroke="#132e65" stroke-width="1.5"></path><path d="M1569.95 696.9L1569.95 696.9" stroke="#132e65" stroke-width="1.5"></path><circle r="5" cx="-53.98" cy="394.22" fill="#132e65"></circle><circle r="5" cx="-80.33" cy="529.4" fill="#132e65"></circle><circle r="5" cx="-75.56" cy="677.98" fill="#132e65"></circle><circle r="5" cx="88.88" cy="387.38" fill="#132e65"></circle><circle r="5" cx="85.61" cy="542.28" fill="#132e65"></circle><circle r="5" cx="111.66" cy="680.9" fill="#132e65"></circle><circle r="5" cx="259.83" cy="396.5" fill="#132e65"></circle><circle r="5" cx="224.99" cy="529.3" fill="#132e65"></circle><circle r="5" cx="258.64" cy="710.85" fill="#132e65"></circle><circle r="5" cx="338.68" cy="382.45" fill="#132e65"></circle><circle r="5" cx="399.9" cy="549.4" fill="#132e65"></circle><circle r="5" cx="389.99" cy="688.19" fill="#132e65"></circle><circle r="5" cx="535.88" cy="406.6" fill="#132e65"></circle><circle r="5" cx="555.86" cy="501.11" fill="#132e65"></circle><circle r="5" cx="495.39" cy="691.44" fill="#132e65"></circle><circle r="5" cx="702.99" cy="222.47" fill="#132e65"></circle><circle r="5" cx="638.43" cy="351.72" fill="#132e65"></circle><circle r="5" cx="647.01" cy="501.28" fill="#132e65"></circle><circle r="5" cx="680.81" cy="637.59" fill="#132e65"></circle><circle r="5" cx="851.59" cy="215.73" fill="#132e65"></circle><circle r="5" cx="827.9" cy="404.89" fill="#132e65"></circle><circle r="5" cx="821.25" cy="647.69" fill="#132e65"></circle><circle r="5" cx="949.5" cy="-74.56" fill="#132e65"></circle><circle r="5" cx="1005.79" cy="57.97" fill="#132e65"></circle><circle r="5" cx="953.12" cy="245.21" fill="#132e65"></circle><circle r="5" cx="1007.71" cy="349.15" fill="#132e65"></circle><circle r="5" cx="974.51" cy="555.5" fill="#132e65"></circle><circle r="5" cx="1003.95" cy="673.51" fill="#132e65"></circle><circle r="5" cx="1132.04" cy="-62.01" fill="#132e65"></circle><circle r="5" cx="1161.26" cy="70.07" fill="#132e65"></circle><circle r="5" cx="1126.42" cy="219.58" fill="#132e65"></circle><circle r="5" cx="1105.21" cy="338.18" fill="#132e65"></circle><circle r="5" cx="1141.91" cy="558.4" fill="#132e65"></circle><circle r="5" cx="1093.23" cy="701.48" fill="#132e65"></circle><circle r="5" cx="1256.78" cy="-56.65" fill="#132e65"></circle><circle r="5" cx="1239.86" cy="91.17" fill="#132e65"></circle><circle r="5" cx="1270.95" cy="261.65" fill="#132e65"></circle><circle r="5" cx="1308.91" cy="338.42" fill="#132e65"></circle><circle r="5" cx="1294.36" cy="495.92" fill="#132e65"></circle><circle r="5" cx="1290.88" cy="644.34" fill="#132e65"></circle><circle r="5" cx="1398.37" cy="-54.01" fill="#132e65"></circle><circle r="5" cx="1430.96" cy="43.09" fill="#132e65"></circle><circle r="5" cx="1426.17" cy="248.13" fill="#132e65"></circle><circle r="5" cx="1406.33" cy="371.9" fill="#132e65"></circle><circle r="5" cx="1439.44" cy="508.79" fill="#132e65"></circle><circle r="5" cx="1393.97" cy="683.91" fill="#132e65"></circle><circle r="5" cx="1611.08" cy="-76.56" fill="#132e65"></circle><circle r="5" cx="1558.67" cy="102.94" fill="#132e65"></circle><circle r="5" cx="1545.42" cy="196.67" fill="#132e65"></circle><circle r="5" cx="1596.45" cy="412.4" fill="#132e65"></circle><circle r="5" cx="1542.82" cy="503.22" fill="#132e65"></circle><circle r="5" cx="1569.95" cy="696.9" fill="#132e65"></circle><path d="M537 691.42L537 691.42" stroke="hsl(228.5, 77.2%, 51.5%)" stroke-width="1.5"></path><path d="M537 691.42L643.01 681.89" stroke="hsl(228.5, 77.2%, 51.5%)" stroke-width="1.5"></path><path d="M537 691.42L408.94 660.52" stroke="hsl(228.5, 77.2%, 51.5%)" stroke-width="1.5"></path><path d="M671.04 365.52L671.04 365.52" stroke="hsl(228.5, 77.2%, 51.5%)" stroke-width="1.5"></path><path d="M671.04 365.52L704.2 537.92" stroke="hsl(228.5, 77.2%, 51.5%)" stroke-width="1.5"></path><path d="M671.04 365.52L501.15 517.84" stroke="hsl(228.5, 77.2%, 51.5%)" stroke-width="1.5"></path><path d="M671.04 365.52L831.99 527.71" stroke="hsl(228.5, 77.2%, 51.5%)" stroke-width="1.5"></path><path d="M671.04 365.52L953.82 492.96" stroke="hsl(228.5, 77.2%, 51.5%)" stroke-width="1.5"></path><path d="M671.04 365.52L643.01 681.89" stroke="hsl(228.5, 77.2%, 51.5%)" stroke-width="1.5"></path><path d="M802.37 655.58L802.37 655.58" stroke="hsl(228.5, 77.2%, 51.5%)" stroke-width="1.5"></path><path d="M802.37 655.58L831.99 527.71" stroke="hsl(228.5, 77.2%, 51.5%)" stroke-width="1.5"></path><path d="M802.37 655.58L944.9 650.39" stroke="hsl(228.5, 77.2%, 51.5%)" stroke-width="1.5"></path><path d="M802.37 655.58L704.2 537.92" stroke="hsl(228.5, 77.2%, 51.5%)" stroke-width="1.5"></path><path d="M802.37 655.58L643.01 681.89" stroke="hsl(228.5, 77.2%, 51.5%)" stroke-width="1.5"></path><path d="M802.37 655.58L953.82 492.96" stroke="hsl(228.5, 77.2%, 51.5%)" stroke-width="1.5"></path><path d="M802.37 655.58L537 691.42" stroke="hsl(228.5, 77.2%, 51.5%)" stroke-width="1.5"></path><path d="M953.82 492.96L953.82 492.96" stroke="hsl(228.5, 77.2%, 51.5%)" stroke-width="1.5"></path><path d="M953.82 492.96L831.99 527.71" stroke="hsl(228.5, 77.2%, 51.5%)" stroke-width="1.5"></path><path d="M953.82 492.96L1090.42 499.28" stroke="hsl(228.5, 77.2%, 51.5%)" stroke-width="1.5"></path><path d="M953.82 492.96L944.9 650.39" stroke="hsl(228.5, 77.2%, 51.5%)" stroke-width="1.5"></path><path d="M953.82 492.96L989.66 337.59" stroke="hsl(228.5, 77.2%, 51.5%)" stroke-width="1.5"></path><path d="M953.82 492.96L1097.14 360.18" stroke="hsl(228.5, 77.2%, 51.5%)" stroke-width="1.5"></path><path d="M944.9 650.39L944.9 650.39" stroke="hsl(228.5, 77.2%, 51.5%)" stroke-width="1.5"></path><path d="M944.9 650.39L831.99 527.71" stroke="hsl(228.5, 77.2%, 51.5%)" stroke-width="1.5"></path><path d="M944.9 650.39L1142.62 650.92" stroke="hsl(228.5, 77.2%, 51.5%)" stroke-width="1.5"></path><path d="M944.9 650.39L1090.42 499.28" stroke="hsl(228.5, 77.2%, 51.5%)" stroke-width="1.5"></path><path d="M944.9 650.39L704.2 537.92" stroke="hsl(228.5, 77.2%, 51.5%)" stroke-width="1.5"></path><path d="M1097.14 360.18L1097.14 360.18" stroke="hsl(228.5, 77.2%, 51.5%)" stroke-width="1.5"></path><path d="M1097.14 360.18L989.66 337.59" stroke="hsl(228.5, 77.2%, 51.5%)" stroke-width="1.5"></path><path d="M1090.42 499.28L1090.42 499.28" stroke="hsl(228.5, 77.2%, 51.5%)" stroke-width="1.5"></path><path d="M1090.42 499.28L1097.14 360.18" stroke="hsl(228.5, 77.2%, 51.5%)" stroke-width="1.5"></path><path d="M1142.62 650.92L1142.62 650.92" stroke="hsl(228.5, 77.2%, 51.5%)" stroke-width="1.5"></path><path d="M1142.62 650.92L1279.04 671.38" stroke="hsl(228.5, 77.2%, 51.5%)" stroke-width="1.5"></path><path d="M1142.62 650.92L1090.42 499.28" stroke="hsl(228.5, 77.2%, 51.5%)" stroke-width="1.5"></path><path d="M1142.62 650.92L1307.54 490.91" stroke="hsl(228.5, 77.2%, 51.5%)" stroke-width="1.5"></path><path d="M1242.32 -45.27L1242.32 -45.27" stroke="hsl(228.5, 77.2%, 51.5%)" stroke-width="1.5"></path><path d="M1242.32 -45.27L1271.4 69.69" stroke="hsl(228.5, 77.2%, 51.5%)" stroke-width="1.5"></path><path d="M1242.32 -45.27L1399.98 63.8" stroke="hsl(228.5, 77.2%, 51.5%)" stroke-width="1.5"></path><path d="M1242.32 -45.27L1450.2 -98.86" stroke="hsl(228.5, 77.2%, 51.5%)" stroke-width="1.5"></path><path d="M1242.32 -45.27L1124.82 202.7" stroke="hsl(228.5, 77.2%, 51.5%)" stroke-width="1.5"></path><path d="M1242.32 -45.27L1307.84 232.76" stroke="hsl(228.5, 77.2%, 51.5%)" stroke-width="1.5"></path><path d="M1242.32 -45.27L1582.52 -75.06" stroke="hsl(228.5, 77.2%, 51.5%)" stroke-width="1.5"></path><path d="M1598.96 207.58L1598.96 207.58" stroke="hsl(228.5, 77.2%, 51.5%)" stroke-width="1.5"></path><path d="M1598.96 207.58L1594.83 90.43" stroke="hsl(228.5, 77.2%, 51.5%)" stroke-width="1.5"></path><path d="M-42.03 492.32L-42.03 492.32" stroke="hsl(228.5, 77.2%, 51.5%)" stroke-width="1.5"></path><path d="M-42.03 492.32L59.67 549.82" stroke="hsl(228.5, 77.2%, 51.5%)" stroke-width="1.5"></path><path d="M-42.03 492.32L53.56 674.73" stroke="hsl(228.5, 77.2%, 51.5%)" stroke-width="1.5"></path><path d="M-42.03 492.32L-77.85 706.88" stroke="hsl(228.5, 77.2%, 51.5%)" stroke-width="1.5"></path><path d="M-42.03 492.32L252.42 517.58" stroke="hsl(228.5, 77.2%, 51.5%)" stroke-width="1.5"></path><path d="M-42.03 492.32L225.42 672.16" stroke="hsl(228.5, 77.2%, 51.5%)" stroke-width="1.5"></path><path d="M-42.03 492.32L393.94 551.27" stroke="hsl(228.5, 77.2%, 51.5%)" stroke-width="1.5"></path><path d="M-77.85 706.88L-77.85 706.88" stroke="hsl(228.5, 77.2%, 51.5%)" stroke-width="1.5"></path><path d="M-77.85 706.88L53.56 674.73" stroke="hsl(228.5, 77.2%, 51.5%)" stroke-width="1.5"></path><path d="M-77.85 706.88L59.67 549.82" stroke="hsl(228.5, 77.2%, 51.5%)" stroke-width="1.5"></path><path d="M-77.85 706.88L225.42 672.16" stroke="hsl(228.5, 77.2%, 51.5%)" stroke-width="1.5"></path><path d="M-77.85 706.88L252.42 517.58" stroke="hsl(228.5, 77.2%, 51.5%)" stroke-width="1.5"></path><path d="M59.67 549.82L59.67 549.82" stroke="hsl(228.5, 77.2%, 51.5%)" stroke-width="1.5"></path><path d="M59.67 549.82L53.56 674.73" stroke="hsl(228.5, 77.2%, 51.5%)" stroke-width="1.5"></path><path d="M59.67 549.82L252.42 517.58" stroke="hsl(228.5, 77.2%, 51.5%)" stroke-width="1.5"></path><path d="M59.67 549.82L225.42 672.16" stroke="hsl(228.5, 77.2%, 51.5%)" stroke-width="1.5"></path><path d="M53.56 674.73L53.56 674.73" stroke="hsl(228.5, 77.2%, 51.5%)" stroke-width="1.5"></path><path d="M53.56 674.73L225.42 672.16" stroke="hsl(228.5, 77.2%, 51.5%)" stroke-width="1.5"></path><path d="M53.56 674.73L252.42 517.58" stroke="hsl(228.5, 77.2%, 51.5%)" stroke-width="1.5"></path><path d="M53.56 674.73L408.94 660.52" stroke="hsl(228.5, 77.2%, 51.5%)" stroke-width="1.5"></path><path d="M252.42 517.58L252.42 517.58" stroke="hsl(228.5, 77.2%, 51.5%)" stroke-width="1.5"></path><path d="M252.42 517.58L393.94 551.27" stroke="hsl(228.5, 77.2%, 51.5%)" stroke-width="1.5"></path><path d="M252.42 517.58L225.42 672.16" stroke="hsl(228.5, 77.2%, 51.5%)" stroke-width="1.5"></path><path d="M252.42 517.58L408.94 660.52" stroke="hsl(228.5, 77.2%, 51.5%)" stroke-width="1.5"></path><path d="M252.42 517.58L501.15 517.84" stroke="hsl(228.5, 77.2%, 51.5%)" stroke-width="1.5"></path><path d="M225.42 672.16L225.42 672.16" stroke="hsl(228.5, 77.2%, 51.5%)" stroke-width="1.5"></path><path d="M225.42 672.16L408.94 660.52" stroke="hsl(228.5, 77.2%, 51.5%)" stroke-width="1.5"></path><path d="M393.94 551.27L393.94 551.27" stroke="hsl(228.5, 77.2%, 51.5%)" stroke-width="1.5"></path><path d="M393.94 551.27L408.94 660.52" stroke="hsl(228.5, 77.2%, 51.5%)" stroke-width="1.5"></path><path d="M393.94 551.27L501.15 517.84" stroke="hsl(228.5, 77.2%, 51.5%)" stroke-width="1.5"></path><path d="M408.94 660.52L408.94 660.52" stroke="hsl(228.5, 77.2%, 51.5%)" stroke-width="1.5"></path><path d="M408.94 660.52L501.15 517.84" stroke="hsl(228.5, 77.2%, 51.5%)" stroke-width="1.5"></path><path d="M501.15 517.84L501.15 517.84" stroke="hsl(228.5, 77.2%, 51.5%)" stroke-width="1.5"></path><path d="M704.2 537.92L704.2 537.92" stroke="hsl(228.5, 77.2%, 51.5%)" stroke-width="1.5"></path><path d="M704.2 537.92L831.99 527.71" stroke="hsl(228.5, 77.2%, 51.5%)" stroke-width="1.5"></path><path d="M704.2 537.92L643.01 681.89" stroke="hsl(228.5, 77.2%, 51.5%)" stroke-width="1.5"></path><path d="M704.2 537.92L501.15 517.84" stroke="hsl(228.5, 77.2%, 51.5%)" stroke-width="1.5"></path><path d="M704.2 537.92L537 691.42" stroke="hsl(228.5, 77.2%, 51.5%)" stroke-width="1.5"></path><path d="M643.01 681.89L643.01 681.89" stroke="hsl(228.5, 77.2%, 51.5%)" stroke-width="1.5"></path><path d="M643.01 681.89L501.15 517.84" stroke="hsl(228.5, 77.2%, 51.5%)" stroke-width="1.5"></path><path d="M643.01 681.89L408.94 660.52" stroke="hsl(228.5, 77.2%, 51.5%)" stroke-width="1.5"></path><path d="M643.01 681.89L831.99 527.71" stroke="hsl(228.5, 77.2%, 51.5%)" stroke-width="1.5"></path><path d="M831.99 527.71L831.99 527.71" stroke="hsl(228.5, 77.2%, 51.5%)" stroke-width="1.5"></path><path d="M989.66 337.59L989.66 337.59" stroke="hsl(228.5, 77.2%, 51.5%)" stroke-width="1.5"></path><path d="M989.66 337.59L1090.42 499.28" stroke="hsl(228.5, 77.2%, 51.5%)" stroke-width="1.5"></path><path d="M989.66 337.59L1124.82 202.7" stroke="hsl(228.5, 77.2%, 51.5%)" stroke-width="1.5"></path><path d="M989.66 337.59L831.99 527.71" stroke="hsl(228.5, 77.2%, 51.5%)" stroke-width="1.5"></path><path d="M1124.82 202.7L1124.82 202.7" stroke="hsl(228.5, 77.2%, 51.5%)" stroke-width="1.5"></path><path d="M1124.82 202.7L1097.14 360.18" stroke="hsl(228.5, 77.2%, 51.5%)" stroke-width="1.5"></path><path d="M1124.82 202.7L1307.84 232.76" stroke="hsl(228.5, 77.2%, 51.5%)" stroke-width="1.5"></path><path d="M1124.82 202.7L1271.4 69.69" stroke="hsl(228.5, 77.2%, 51.5%)" stroke-width="1.5"></path><path d="M1271.4 69.69L1271.4 69.69" stroke="hsl(228.5, 77.2%, 51.5%)" stroke-width="1.5"></path><path d="M1271.4 69.69L1399.98 63.8" stroke="hsl(228.5, 77.2%, 51.5%)" stroke-width="1.5"></path><path d="M1271.4 69.69L1307.84 232.76" stroke="hsl(228.5, 77.2%, 51.5%)" stroke-width="1.5"></path><path d="M1307.84 232.76L1307.84 232.76" stroke="hsl(228.5, 77.2%, 51.5%)" stroke-width="1.5"></path><path d="M1307.84 232.76L1407.25 355.19" stroke="hsl(228.5, 77.2%, 51.5%)" stroke-width="1.5"></path><path d="M1307.84 232.76L1399.98 63.8" stroke="hsl(228.5, 77.2%, 51.5%)" stroke-width="1.5"></path><path d="M1307.84 232.76L1097.14 360.18" stroke="hsl(228.5, 77.2%, 51.5%)" stroke-width="1.5"></path><path d="M1307.54 490.91L1307.54 490.91" stroke="hsl(228.5, 77.2%, 51.5%)" stroke-width="1.5"></path><path d="M1307.54 490.91L1418.72 511.45" stroke="hsl(228.5, 77.2%, 51.5%)" stroke-width="1.5"></path><path d="M1307.54 490.91L1407.25 355.19" stroke="hsl(228.5, 77.2%, 51.5%)" stroke-width="1.5"></path><path d="M1307.54 490.91L1279.04 671.38" stroke="hsl(228.5, 77.2%, 51.5%)" stroke-width="1.5"></path><path d="M1307.54 490.91L1090.42 499.28" stroke="hsl(228.5, 77.2%, 51.5%)" stroke-width="1.5"></path><path d="M1279.04 671.38L1279.04 671.38" stroke="hsl(228.5, 77.2%, 51.5%)" stroke-width="1.5"></path><path d="M1450.2 -98.86L1450.2 -98.86" stroke="hsl(228.5, 77.2%, 51.5%)" stroke-width="1.5"></path><path d="M1450.2 -98.86L1582.52 -75.06" stroke="hsl(228.5, 77.2%, 51.5%)" stroke-width="1.5"></path><path d="M1399.98 63.8L1399.98 63.8" stroke="hsl(228.5, 77.2%, 51.5%)" stroke-width="1.5"></path><path d="M1399.98 63.8L1450.2 -98.86" stroke="hsl(228.5, 77.2%, 51.5%)" stroke-width="1.5"></path><path d="M1407.25 355.19L1407.25 355.19" stroke="hsl(228.5, 77.2%, 51.5%)" stroke-width="1.5"></path><path d="M1407.25 355.19L1539.3 349.56" stroke="hsl(228.5, 77.2%, 51.5%)" stroke-width="1.5"></path><path d="M1407.25 355.19L1418.72 511.45" stroke="hsl(228.5, 77.2%, 51.5%)" stroke-width="1.5"></path><path d="M1418.72 511.45L1418.72 511.45" stroke="hsl(228.5, 77.2%, 51.5%)" stroke-width="1.5"></path><path d="M1418.72 511.45L1573.61 510.38" stroke="hsl(228.5, 77.2%, 51.5%)" stroke-width="1.5"></path><path d="M1459.25 670.59L1459.25 670.59" stroke="hsl(228.5, 77.2%, 51.5%)" stroke-width="1.5"></path><path d="M1459.25 670.59L1418.72 511.45" stroke="hsl(228.5, 77.2%, 51.5%)" stroke-width="1.5"></path><path d="M1459.25 670.59L1279.04 671.38" stroke="hsl(228.5, 77.2%, 51.5%)" stroke-width="1.5"></path><path d="M1459.25 670.59L1573.61 510.38" stroke="hsl(228.5, 77.2%, 51.5%)" stroke-width="1.5"></path><path d="M1582.52 -75.06L1582.52 -75.06" stroke="hsl(228.5, 77.2%, 51.5%)" stroke-width="1.5"></path><path d="M1582.52 -75.06L1594.83 90.43" stroke="hsl(228.5, 77.2%, 51.5%)" stroke-width="1.5"></path><path d="M1582.52 -75.06L1399.98 63.8" stroke="hsl(228.5, 77.2%, 51.5%)" stroke-width="1.5"></path><path d="M1582.52 -75.06L1598.96 207.58" stroke="hsl(228.5, 77.2%, 51.5%)" stroke-width="1.5"></path><path d="M1594.83 90.43L1594.83 90.43" stroke="hsl(228.5, 77.2%, 51.5%)" stroke-width="1.5"></path><path d="M1594.83 90.43L1399.98 63.8" stroke="hsl(228.5, 77.2%, 51.5%)" stroke-width="1.5"></path><path d="M1594.83 90.43L1450.2 -98.86" stroke="hsl(228.5, 77.2%, 51.5%)" stroke-width="1.5"></path><path d="M1594.83 90.43L1539.3 349.56" stroke="hsl(228.5, 77.2%, 51.5%)" stroke-width="1.5"></path><path d="M1539.3 349.56L1539.3 349.56" stroke="hsl(228.5, 77.2%, 51.5%)" stroke-width="1.5"></path><path d="M1539.3 349.56L1598.96 207.58" stroke="hsl(228.5, 77.2%, 51.5%)" stroke-width="1.5"></path><path d="M1539.3 349.56L1573.61 510.38" stroke="hsl(228.5, 77.2%, 51.5%)" stroke-width="1.5"></path><path d="M1539.3 349.56L1418.72 511.45" stroke="hsl(228.5, 77.2%, 51.5%)" stroke-width="1.5"></path><path d="M1573.61 510.38L1573.61 510.38" stroke="hsl(228.5, 77.2%, 51.5%)" stroke-width="1.5"></path><path d="M1573.61 510.38L1407.25 355.19" stroke="hsl(228.5, 77.2%, 51.5%)" stroke-width="1.5"></path><path d="M1573.61 510.38L1307.54 490.91" stroke="hsl(228.5, 77.2%, 51.5%)" stroke-width="1.5"></path><circle r="25" cx="537" cy="691.42" fill="url(&quot;#SvgjsRadialGradient1039&quot;)"></circle><circle r="25" cx="671.04" cy="365.52" fill="url(&quot;#SvgjsRadialGradient1039&quot;)"></circle><circle r="25" cx="802.37" cy="655.58" fill="url(&quot;#SvgjsRadialGradient1039&quot;)"></circle><circle r="25" cx="953.82" cy="492.96" fill="url(&quot;#SvgjsRadialGradient1039&quot;)"></circle><circle r="25" cx="944.9" cy="650.39" fill="url(&quot;#SvgjsRadialGradient1039&quot;)"></circle><circle r="25" cx="1097.14" cy="360.18" fill="url(&quot;#SvgjsRadialGradient1039&quot;)"></circle><circle r="25" cx="1090.42" cy="499.28" fill="url(&quot;#SvgjsRadialGradient1039&quot;)"></circle><circle r="25" cx="1142.62" cy="650.92" fill="url(&quot;#SvgjsRadialGradient1039&quot;)"></circle><circle r="25" cx="1242.32" cy="-45.27" fill="url(&quot;#SvgjsRadialGradient1039&quot;)"></circle><circle r="25" cx="1598.96" cy="207.58" fill="url(&quot;#SvgjsRadialGradient1039&quot;)"></circle><circle r="5" cx="-42.03" cy="492.32" fill="#8b9ad9"></circle><circle r="5" cx="-77.85" cy="706.88" fill="#8b9ad9"></circle><circle r="5" cx="59.67" cy="549.82" fill="#8b9ad9"></circle><circle r="5" cx="53.56" cy="674.73" fill="#8b9ad9"></circle><circle r="5" cx="252.42" cy="517.58" fill="#8b9ad9"></circle><circle r="5" cx="225.42" cy="672.16" fill="#8b9ad9"></circle><circle r="5" cx="393.94" cy="551.27" fill="#8b9ad9"></circle><circle r="5" cx="408.94" cy="660.52" fill="#8b9ad9"></circle><circle r="5" cx="501.15" cy="517.84" fill="#8b9ad9"></circle><circle r="5" cx="704.2" cy="537.92" fill="#8b9ad9"></circle><circle r="5" cx="643.01" cy="681.89" fill="#8b9ad9"></circle><circle r="5" cx="831.99" cy="527.71" fill="#8b9ad9"></circle><circle r="5" cx="989.66" cy="337.59" fill="#8b9ad9"></circle><circle r="5" cx="1124.82" cy="202.7" fill="#8b9ad9"></circle><circle r="5" cx="1271.4" cy="69.69" fill="#8b9ad9"></circle><circle r="5" cx="1307.84" cy="232.76" fill="#8b9ad9"></circle><circle r="5" cx="1307.54" cy="490.91" fill="#8b9ad9"></circle><circle r="5" cx="1279.04" cy="671.38" fill="#8b9ad9"></circle><circle r="5" cx="1450.2" cy="-98.86" fill="#8b9ad9"></circle><circle r="5" cx="1399.98" cy="63.8" fill="#8b9ad9"></circle><circle r="5" cx="1407.25" cy="355.19" fill="#8b9ad9"></circle><circle r="5" cx="1418.72" cy="511.45" fill="#8b9ad9"></circle><circle r="5" cx="1459.25" cy="670.59" fill="#8b9ad9"></circle><circle r="5" cx="1582.52" cy="-75.06" fill="#8b9ad9"></circle><circle r="5" cx="1594.83" cy="90.43" fill="#8b9ad9"></circle><circle r="5" cx="1539.3" cy="349.56" fill="#8b9ad9"></circle><circle r="5" cx="1573.61" cy="510.38" fill="#8b9ad9"></circle></g><defs><mask id="SvgjsMask1038"><rect width="1440" height="560" fill="#ffffff"></rect></mask><radialGradient id="SvgjsRadialGradient1039"><stop stop-color="#ffffff" offset="0.1"></stop><stop stop-color="#1735b3" offset="0.2"></stop><stop stop-color="rgba(23, 53, 179, 0)" offset="1"></stop></radialGradient></defs></svg>